<?xml version="1.0" encoding="utf-8"?>
<!-- Generator: Adobe Illustrator 25.2.1, SVG Export Plug-In . SVG Version: 6.00 Build 0)  -->
<svg version="1.1" id="Capa_1" xmlns="http://www.w3.org/2000/svg" xmlns:xlink="http://www.w3.org/1999/xlink" x="0px" y="0px"
	 viewBox="0 0 128 128" style="enable-background:new 0 0 128 128;" xml:space="preserve">
<style type="text/css">
	.st0{fill:#FFFFFF;}
	.st1{fill:none;}
</style>
<path class="st0" d="M19.3,73.8c5.6-3,11-6.4,16.2-10.2c4.9,3.6,9.4,7.6,13.8,11.9l2.9,2.9c-3.8,4.8-7.3,9.7-10.5,14.8
	c4.3,4.8,8.1,9.8,11.5,15.2c4,6.3,7.4,12.8,10.2,19.7c2.9-6.8,6.4-13.3,10.5-19.4c3.6-5.3,7.5-10.3,11.9-14.9
	c-3-5.1-6.4-10.2-10.2-14.9l2.6-2.6c4.4-4.1,9-8.1,13.9-11.8c5.1,3.9,10.5,7.4,16.2,10.5c6.3-4,12.8-7.4,19.7-10.2
	c-6.8-2.9-13.3-6.4-19.4-10.5l0,0c-5.3-3.6-10.3-7.5-14.9-11.9c-2.6-2.4-5-4.9-7.3-7.5c-4.3-4.8-8.1-9.8-11.5-15.2
	c-4-6.3-7.4-12.8-10.2-19.7c-2.9,6.8-6.4,13.3-10.5,19.4c-3.6,5.3-7.5,10.3-11.9,14.9c-2.3,2.5-4.8,4.9-7.3,7
	c-4.8,4.3-9.9,8.1-15.2,11.8c-6.1,4-12.8,7.4-19.7,10.2C6.8,66.4,13.2,70,19.3,73.8z M52.2,49.6c4.3-4.3,8.3-8.9,11.9-13.8
	c3.6,4.9,7.5,9.5,11.5,13.9l2.9,2.9c-4.6,3.6-9.2,7.5-13.4,11.8l-1,0.9l-1.3-1.3c-4.3-4.3-8.5-8.1-13.2-11.9
	C50.4,51.3,51.3,50.4,52.2,49.6z"/>
<rect x="-245.9" y="-100.9" class="st1" width="128.5" height="109.3"/>
</svg>
